<svg viewBox="0 0 88 46" xmlns="http://www.w3.org/2000/svg" fill-rule="evenodd" clip-rule="evenodd" stroke-linejoin="round" stroke-miterlimit="1.414"><path d="M33.506 2.13c0 .214-.027.401-.08.562-.054.16-.127.299-.219.415-.092.116-.199.21-.321.281a1.606 1.606 0 0 1-.379.161v.017a1.404 1.404 0 0 1 1.066.924c.063.17.094.356.094.558 0 .244-.042.467-.125.669a1.365 1.365 0 0 1-.388.527 1.88 1.88 0 0 1-.665.348 3.243 3.243 0 0 1-.955.125h-1.259V.559h1.187c.363 0 .674.037.933.111.259.075.472.18.638.317.167.137.287.302.362.495.074.194.111.41.111.648zm-.785.026a.912.912 0 0 0-.304-.705c-.202-.184-.52-.276-.955-.276h-.41v2.124h.401c.417 0 .732-.101.946-.304.215-.202.322-.482.322-.839zm.116 2.838c0-.333-.109-.596-.326-.789-.217-.194-.528-.29-.933-.29h-.526v2.159h.482c.458 0 .79-.09.995-.272.205-.181.308-.451.308-.808zm4.784 1.723h-.661v-.482h-.018a1.153 1.153 0 0 1-.343.353 1.584 1.584 0 0 1-.335.165 1.288 1.288 0 0 1-.437.071c-.191 0-.362-.028-.513-.085a.928.928 0 0 1-.389-.272 1.263 1.263 0 0 1-.245-.486 2.724 2.724 0 0 1-.085-.737V2.433h.723v2.758c0 .357.058.611.174.763.116.152.296.227.54.227a.873.873 0 0 0 .527-.156c.142-.104.255-.206.339-.308V2.433h.723v4.284zm3.445 0V3.959c0-.363-.061-.623-.183-.781-.122-.157-.308-.236-.558-.236a.87.87 0 0 0-.536.16 2.026 2.026 0 0 0-.339.313v3.302h-.723V2.433h.661v.482h.018a1.084 1.084 0 0 1 .348-.353c.095-.062.208-.117.339-.165.131-.047.279-.071.446-.071.19 0 .363.028.518.085a.925.925 0 0 1 .392.272c.108.125.191.287.25.486.06.2.09.445.09.737v2.811h-.723zm1.606-2.08c0-.434.057-.797.17-1.088.113-.292.259-.527.437-.705.179-.179.381-.305.607-.38.226-.074.452-.111.678-.111.137 0 .256.01.357.031.101.021.185.046.25.076V.407l.723-.08v6.39h-.66v-.455h-.018a1.046 1.046 0 0 1-.295.334 1.168 1.168 0 0 1-.312.161 1.29 1.29 0 0 1-.437.067c-.203 0-.395-.04-.576-.12a1.253 1.253 0 0 1-.478-.384 2.016 2.016 0 0 1-.325-.679 3.606 3.606 0 0 1-.121-1.004zm1.696 1.544a.947.947 0 0 0 .803-.419V3.12a1.112 1.112 0 0 0-.227-.107 1.298 1.298 0 0 0-.795.04.921.921 0 0 0-.379.281 1.453 1.453 0 0 0-.254.509 2.684 2.684 0 0 0-.094.768c0 .297.025.546.076.745.05.199.12.36.209.482.09.122.191.21.304.263.113.054.232.08.357.08zm5.382-2.302c0 .184-.006.343-.018.477-.012.134-.024.252-.036.353h-2.187c.024.506.133.878.326 1.115.194.238.472.357.835.357a1.19 1.19 0 0 0 .602-.151 1.36 1.36 0 0 0 .299-.223l.268.508a7.49 7.49 0 0 1-.134.13c-.059.056-.14.113-.241.169a1.713 1.713 0 0 1-.375.148 1.993 1.993 0 0 1-.526.062c-.268 0-.511-.045-.728-.134a1.37 1.37 0 0 1-.553-.415 2.005 2.005 0 0 1-.353-.714 3.792 3.792 0 0 1-.125-1.04c0-.38.044-.709.13-.986a1.99 1.99 0 0 1 .352-.683c.149-.178.322-.31.518-.397.196-.086.408-.129.634-.129.41 0 .732.129.964.388.232.259.348.647.348 1.165zm-1.357-.964a.724.724 0 0 0-.616.321c-.154.214-.244.524-.268.928h1.562a.912.912 0 0 0 .014-.129c.003-.056.004-.117.004-.183 0-.297-.059-.528-.178-.692-.119-.163-.292-.245-.518-.245zm4.168.384a1.794 1.794 0 0 0-.259-.219.807.807 0 0 0-.491-.138c-.19 0-.336.044-.437.134a.414.414 0 0 0-.152.321c0 .161.046.293.139.397.092.104.233.216.424.335l.267.16c.292.173.521.359.688.558.166.2.249.457.249.772 0 .339-.117.625-.352.857-.235.232-.573.348-1.013.348a1.766 1.766 0 0 1-.799-.178c-.098-.048-.18-.1-.245-.157a1.522 1.522 0 0 1-.161-.156l.348-.571.13.125a1.137 1.137 0 0 0 .423.25.99.99 0 0 0 .313.044c.214 0 .378-.047.491-.142a.44.44 0 0 0 .169-.348.776.776 0 0 0-.04-.264.61.61 0 0 0-.12-.2 1.078 1.078 0 0 0-.197-.17 10.1 10.1 0 0 0-.267-.179l-.268-.169a2.564 2.564 0 0 1-.629-.545c-.152-.19-.228-.434-.228-.731a1.024 1.024 0 0 1 .357-.79 1.27 1.27 0 0 1 .397-.232c.152-.057.314-.085.487-.085.166 0 .309.016.428.049a1.268 1.268 0 0 1 .522.277c.057.05.103.093.138.129l-.312.518zm3.668-.402l-1.731 3.186v.018h1.847l-.062.616h-2.722v-.464l1.785-3.213v-.018h-1.687v-.589h2.57v.464zm3.615.982c0 .184-.006.343-.018.477-.012.134-.024.252-.036.353h-2.186c.023.506.132.878.325 1.115.194.238.472.357.835.357a1.19 1.19 0 0 0 .602-.151 1.36 1.36 0 0 0 .299-.223l.268.508a7.49 7.49 0 0 1-.134.13c-.059.056-.14.113-.241.169a1.713 1.713 0 0 1-.375.148 1.987 1.987 0 0 1-.526.062c-.268 0-.51-.045-.728-.134a1.37 1.37 0 0 1-.553-.415 1.988 1.988 0 0 1-.352-.714 3.753 3.753 0 0 1-.125-1.04c0-.38.043-.709.129-.986.086-.276.204-.504.353-.683.148-.178.321-.31.517-.397.197-.086.408-.129.634-.129.41 0 .732.129.964.388.232.259.348.647.348 1.165zm-1.357-.964a.724.724 0 0 0-.616.321c-.154.214-.244.524-.267.928h1.562c.005-.029.01-.072.013-.129.003-.056.004-.117.004-.183 0-.297-.059-.528-.178-.692-.119-.163-.292-.245-.518-.245zm4.659 3.802V3.959c0-.363-.061-.623-.183-.781-.122-.157-.308-.236-.558-.236a.867.867 0 0 0-.535.16 1.95 1.95 0 0 0-.339.313v3.302h-.723V2.433h.66v.482h.018a1.136 1.136 0 0 1 .348-.353c.095-.062.208-.117.339-.165.131-.047.28-.071.447-.071.19 0 .362.028.517.085a.922.922 0 0 1 .393.272c.107.125.19.287.25.486.059.2.089.445.089.737v2.811h-.723zm3.633-3.695h-.938v2.374c0 .304.039.51.116.62.078.11.209.165.393.165.107 0 .2-.014.277-.044a.976.976 0 0 0 .169-.08l.099.58a1.121 1.121 0 0 1-.67.187c-.369 0-.645-.103-.83-.308-.184-.205-.276-.546-.276-1.022V3.022h-.518V2.54l.518-.107.08-1.196h.642v1.196h1.027l-.089.589zm2.704.045a.528.528 0 0 0-.116-.045.865.865 0 0 0-.241-.027c-.226 0-.403.061-.531.183a1.067 1.067 0 0 0-.272.397v3.142H67.6V2.433h.66v.58h.018c.03-.083.068-.165.116-.245a.82.82 0 0 1 .433-.362c.098-.035.216-.053.352-.053.102 0 .183.009.246.026l.147.045-.089.643zm.419 2.561c0-.25.048-.458.143-.625.095-.166.223-.302.384-.406.161-.104.349-.178.567-.223.217-.044.447-.067.691-.067h.223v-.41c0-.363-.064-.613-.191-.75-.128-.137-.308-.205-.54-.205a.97.97 0 0 0-.536.138 3.182 3.182 0 0 0-.339.245l-.303-.481c.047-.048.108-.102.182-.161.075-.06.166-.116.273-.17.107-.053.229-.098.366-.134.136-.035.291-.053.464-.053.44 0 .773.122.999.366.226.244.339.636.339 1.178v1.954c0 .185.006.365.018.54.012.176.024.294.036.353h-.687l-.027-.473h-.018a1.092 1.092 0 0 1-.107.183.895.895 0 0 1-.178.187.946.946 0 0 1-.616.21 1.119 1.119 0 0 1-1.058-.718 1.323 1.323 0 0 1-.085-.478zm1.294.58a.757.757 0 0 0 .469-.151.7.7 0 0 0 .143-.139c.038-.05.073-.094.102-.129v-.946l-.232.009c-.345.012-.607.071-.785.178-.179.107-.268.28-.268.518 0 .22.051.385.152.495a.54.54 0 0 0 .419.165zm3.231-.491c0 .179.026.304.076.375.051.072.139.107.263.107a.652.652 0 0 0 .268-.053l.063.535a1.56 1.56 0 0 1-.197.072 1.355 1.355 0 0 1-.383.044c-.244 0-.441-.074-.59-.223-.148-.149-.223-.413-.223-.794V.407l.723-.08v5.39zm1.071-.089c0-.25.048-.458.143-.625.095-.166.223-.302.384-.406.161-.104.349-.178.567-.223.217-.044.447-.067.691-.067h.223v-.41c0-.363-.064-.613-.191-.75-.128-.137-.308-.205-.54-.205a.97.97 0 0 0-.536.138 3.182 3.182 0 0 0-.339.245l-.304-.481c.048-.048.109-.102.183-.161.075-.06.166-.116.273-.17.107-.053.229-.098.366-.134.136-.035.291-.053.464-.053.44 0 .773.122.999.366.226.244.339.636.339 1.178v1.954c0 .185.006.365.018.54.012.176.024.294.036.353h-.687l-.027-.473h-.018a1.092 1.092 0 0 1-.107.183.895.895 0 0 1-.178.187.946.946 0 0 1-.616.21 1.119 1.119 0 0 1-1.058-.718 1.323 1.323 0 0 1-.085-.478zm1.294.58a.757.757 0 0 0 .612-.29c.038-.05.073-.094.102-.129v-.946l-.232.009c-.345.012-.607.071-.785.178-.179.107-.268.28-.268.518 0 .22.051.385.152.495a.54.54 0 0 0 .419.165zm4.766.509V3.959c0-.351-.05-.604-.151-.758-.102-.155-.265-.233-.491-.233a1.024 1.024 0 0 0-.563.157 1.03 1.03 0 0 0-.187.147 2.608 2.608 0 0 0-.134.143v3.302h-.723V2.433h.661v.482h.018a1.351 1.351 0 0 1 .357-.37 1.23 1.23 0 0 1 .714-.219c.487 0 .833.19 1.035.571a1.365 1.365 0 0 1 .419-.379 1.387 1.387 0 0 1 .714-.192c.869 0 1.303.506 1.303 1.517v2.874h-.723V3.959c0-.351-.062-.604-.187-.758-.125-.155-.309-.233-.553-.233a.833.833 0 0 0-.505.148 1.947 1.947 0 0 0-.316.281 2.932 2.932 0 0 1 .035.446v2.874h-.723zm5.882-3.695h-.937v2.374c0 .304.039.51.116.62.077.11.208.165.393.165a.761.761 0 0 0 .276-.044.994.994 0 0 0 .17-.08l.098.58a1.125 1.125 0 0 1-.669.187c-.369 0-.646-.103-.83-.308-.185-.205-.277-.546-.277-1.022V3.022h-.518V2.54l.518-.107.08-1.196h.643v1.196h1.026l-.089.589zm-55.514 9h-.874v3.695h-.723v-3.695h-.518v-.482l.518-.098v-.857c0-.232.033-.431.098-.598.066-.166.152-.303.259-.41a.929.929 0 0 1 .375-.232c.143-.048.294-.072.455-.072.155 0 .285.021.393.063.107.041.178.074.214.098l-.152.598a.885.885 0 0 0-.152-.076.63.63 0 0 0-.241-.04c-.172 0-.303.053-.392.16-.09.107-.134.304-.134.589v.768h.964l-.09.589zm3.713 3.695h-.66v-.482h-.018a1.16 1.16 0 0 1-.344.353 1.551 1.551 0 0 1-.334.165 1.29 1.29 0 0 1-.438.071c-.19 0-.361-.028-.513-.085a.924.924 0 0 1-.388-.272 1.278 1.278 0 0 1-.246-.486 2.769 2.769 0 0 1-.084-.737v-2.811h.723v2.758c0 .357.058.611.174.763.116.152.296.227.54.227a.87.87 0 0 0 .526-.156c.143-.104.256-.206.339-.308v-3.284h.723v4.284zm-1.776-5.516a.446.446 0 0 1-.125.331.413.413 0 0 1-.303.125.417.417 0 0 1-.304-.125.45.45 0 0 1-.125-.331c0-.137.042-.247.125-.33a.417.417 0 0 1 .304-.125c.119 0 .22.042.303.125a.442.442 0 0 1 .125.33zm1.375 0a.45.45 0 0 1-.125.331.417.417 0 0 1-.304.125.413.413 0 0 1-.303-.125.446.446 0 0 1-.125-.331c0-.137.041-.247.125-.33a.413.413 0 0 1 .303-.125c.119 0 .22.042.304.125a.446.446 0 0 1 .125.33zm3.391 1.866a.506.506 0 0 0-.116-.045.86.86 0 0 0-.241-.027c-.226 0-.403.061-.531.183a1.067 1.067 0 0 0-.272.397v3.142h-.723v-4.284h.66v.58h.018c.03-.083.069-.165.116-.245a.803.803 0 0 1 .433-.362c.098-.035.216-.053.353-.053.101 0 .183.009.245.026.063.018.112.033.147.045l-.089.643zm4.882-1.562a1.109 1.109 0 0 0-.335-.232 1.548 1.548 0 0 0-.691-.152c-.268 0-.47.071-.607.214a.7.7 0 0 0-.205.5 1.057 1.057 0 0 0 .2.629c.069.098.154.197.255.295.101.098.223.204.366.317l.499.41c.143.119.279.241.407.366.127.125.238.257.33.397a1.75 1.75 0 0 1 .299 1.004c0 .47-.146.85-.438 1.138-.291.289-.717.433-1.276.433a2.369 2.369 0 0 1-1.026-.214 1.949 1.949 0 0 1-.313-.183 2.07 2.07 0 0 1-.187-.156l.312-.679c.036.036.09.084.161.143.071.06.158.119.259.179.101.059.216.11.343.151.128.042.273.063.433.063.304 0 .537-.076.701-.228a.709.709 0 0 0 .245-.54c0-.13-.016-.25-.049-.357a1.226 1.226 0 0 0-.143-.308 1.737 1.737 0 0 0-.236-.29 4.568 4.568 0 0 0-.339-.303l-.5-.42a7.062 7.062 0 0 1-.455-.406 2.425 2.425 0 0 1-.335-.401 1.697 1.697 0 0 1-.21-.455 2.063 2.063 0 0 1-.071-.567c0-.196.037-.381.112-.553a1.29 1.29 0 0 1 .316-.447 1.48 1.48 0 0 1 .496-.294 1.87 1.87 0 0 1 .656-.107 2.202 2.202 0 0 1 .932.191c.11.051.198.103.264.157.065.053.116.092.151.116l-.321.589zm3.142 1.517h-.937v2.374c0 .304.038.51.116.62.077.11.208.165.392.165.107 0 .2-.014.277-.044.077-.03.134-.057.17-.08l.098.58a1.13 1.13 0 0 1-.67.187c-.369 0-.645-.103-.83-.308-.184-.205-.276-.546-.276-1.022v-2.472h-.518v-.482l.518-.107.08-1.196h.643v1.196h1.026l-.089.589zm3.507.857c0 .184-.006.343-.018.477a12.82 12.82 0 0 1-.035.353H47.92c.024.506.132.878.326 1.115.193.238.471.357.834.357a1.19 1.19 0 0 0 .603-.151 1.345 1.345 0 0 0 .299-.223l.267.508c-.029.03-.074.073-.133.13-.06.056-.14.113-.241.169a1.754 1.754 0 0 1-.375.148 2 2 0 0 1-.527.062c-.268 0-.51-.045-.727-.134a1.373 1.373 0 0 1-.554-.415 2.004 2.004 0 0 1-.352-.714 3.792 3.792 0 0 1-.125-1.04c0-.38.043-.709.129-.986a1.99 1.99 0 0 1 .353-.683c.149-.178.321-.31.518-.397.196-.086.407-.129.633-.129.411 0 .732.129.964.388.232.259.348.647.348 1.165zm-1.356-.964a.724.724 0 0 0-.616.321c-.155.214-.244.524-.268.928h1.562a.944.944 0 0 0 .013-.129 3.41 3.41 0 0 0 .005-.183c0-.297-.06-.528-.179-.692-.119-.163-.291-.245-.517-.245zm5.319 3.802h-.661v-.482h-.017a1.19 1.19 0 0 1-.344.353 1.56 1.56 0 0 1-.335.165 1.284 1.284 0 0 1-.437.071c-.19 0-.361-.028-.513-.085a.924.924 0 0 1-.388-.272 1.264 1.264 0 0 1-.246-.486 2.765 2.765 0 0 1-.085-.737v-2.811h.723v2.758c0 .357.058.611.174.763.116.152.296.227.54.227a.87.87 0 0 0 .527-.156c.143-.104.256-.206.339-.308v-3.284h.723v4.284zm3.856-2.838c0 .184-.006.343-.018.477-.012.134-.024.252-.036.353h-2.187c.024.506.133.878.326 1.115.193.238.472.357.835.357a1.19 1.19 0 0 0 .602-.151 1.345 1.345 0 0 0 .299-.223l.268.508-.134.13c-.06.056-.14.113-.241.169a1.713 1.713 0 0 1-.375.148 1.995 1.995 0 0 1-.527.062c-.267 0-.51-.045-.727-.134a1.37 1.37 0 0 1-.553-.415 2.005 2.005 0 0 1-.353-.714 3.792 3.792 0 0 1-.125-1.04c0-.38.043-.709.13-.986.086-.276.203-.504.352-.683.149-.178.322-.31.518-.397a1.56 1.56 0 0 1 .634-.129c.41 0 .731.129.963.388.232.259.349.647.349 1.165zm-1.357-.964a.724.724 0 0 0-.616.321c-.155.214-.244.524-.268.928H57.3a.912.912 0 0 0 .014-.129c.003-.056.004-.117.004-.183 0-.297-.059-.528-.178-.692-.119-.163-.292-.245-.518-.245zm4.204.152a.528.528 0 0 0-.116-.045.865.865 0 0 0-.241-.027c-.227 0-.404.061-.531.183a1.082 1.082 0 0 0-.273.397v3.142h-.723v-4.284h.661v.58h.018a1.33 1.33 0 0 1 .116-.245.808.808 0 0 1 .433-.362c.098-.035.215-.053.352-.053a.968.968 0 0 1 .393.071l-.089.643zm3.052 3.65v-2.758c0-.363-.061-.623-.183-.781-.122-.157-.308-.236-.558-.236a.865.865 0 0 0-.535.16 1.95 1.95 0 0 0-.339.313v3.302h-.723v-4.284h.66v.482h.018a1.11 1.11 0 0 1 .348-.353c.095-.062.208-.117.339-.165.131-.047.28-.071.446-.071.191 0 .363.028.518.085a.922.922 0 0 1 .393.272c.107.125.19.287.25.486.059.2.089.445.089.737v2.811h-.723zM10.575 6.221a4.38 4.38 0 0 0 .032-.518c0-.097.001-.209-.011-.337 1.495-.021 2.806-1.098 2.806-2.336 0-.63-.411-1.106-.643-1.39l.157-.036c.22.191.84.867.84 1.722 0 1.485-1.485 2.864-3.181 2.895M9.069 1.047a1.023 1.023 0 0 0-.187-.445c.005-.151.068-.296.312-.177-.133.135-.031.374-.031.374s.271-.125.214-.303c.401.096.113.634-.308.551m-.347.763a1.588 1.588 0 0 0-.312-.622c-.132-.156-.351-.341-.645-.341a1.57 1.57 0 0 0-.502.124C7.21.873 7.105.638 7.105.533c0-.109.184-.219.536-.219.774 0 1.236.349 1.236.936 0 .206-.082.393-.155.56m1.987 9.975c.09 0 .134.014.186.033.223.606 1.082 1.75 1.118 1.799l.007.01.013-.003a8.524 8.524 0 0 1 1.198-.114h.011c.049 0 .104 0 .139.034.03.03.044.08.044.153a.855.855 0 0 1-.104.385c-.158-.172-.414-.249-.823-.249a1.46 1.46 0 0 0-.347.058l-.033.006-.036.01.236.237c.364.364.679.678.679.887 0 .126-.123.291-.235.363-.025-.383-.412-.896-.789-1.183l-.032-.024-.006.135a5.77 5.77 0 0 0-.014.376c0 .729-.074.841-.327.841a.48.48 0 0 1-.135-.025c.143-.176.199-.409.199-.817l-.002-.188-.003-.152c0-.167.018-.291.031-.391l.008-.056-.04-.005a3.996 3.996 0 0 0-.506-.047c-.361 0-.606.034-.783.2-.117-.095-.237-.257-.237-.36 0-.152.095-.164.219-.164.063 0 .122.009.203.018.155.024.388.058.869.058h.03l-.01-.029c-.121-.349-.456-.856-.992-1.507.048-.175.095-.289.264-.289m-4.63 1.796l-.01.029h.03c.48 0 .714-.034.869-.058.081-.009.14-.018.203-.018.123 0 .219.012.219.164 0 .103-.12.265-.237.36-.177-.166-.422-.2-.782-.2-.169 0-.389.03-.507.047l-.019.002-.021.003.007.056c.014.1.032.224.032.391l-.003.152-.002.188c0 .408.056.641.2.817a.494.494 0 0 1-.136.025c-.254 0-.327-.112-.327-.841 0-.147-.008-.284-.013-.376l-.007-.136-.032.025c-.376.287-.765.8-.788 1.183-.113-.072-.236-.237-.236-.363 0-.209.315-.523.679-.888l.209-.209.027-.027-.069-.016a1.461 1.461 0 0 0-.348-.058c-.408 0-.663.077-.822.249a.855.855 0 0 1-.104-.385c0-.073.014-.124.044-.153.035-.034.09-.034.139-.034h.011c.45 0 .988.081 1.198.114l.013.003.007-.01c.037-.049.895-1.193 1.119-1.799a.457.457 0 0 1 .185-.033c.169 0 .216.114.265.288-.537.652-.872 1.159-.993 1.508M3.76 3.325c0-.854.621-1.53.84-1.721.053.013.105.025.158.036-.233.284-.644.76-.644 1.39 0 1.251 1.337 2.337 2.85 2.337-.009.107-.015.22-.015.336 0 .184.011.356.029.518-1.712-.01-3.218-1.399-3.218-2.896M15.239 5.96c.768 1.214 1.369 1.194 2.276 1.194-.75-.575-1.247-1.312-1.484-1.689l-1.402-2.244a3.32 3.32 0 0 0-1.032-1.823c.18-.068.33-.14.42-.209-.915 0-1.823-.464-2.322-.464-.321 0-.528.191-.528.445.021.283.312.57.849.57.122 0 .278-.016.449-.044.291.405.526.772.526 1.296 0 .982-1.175 1.748-2.361 1.748a2.62 2.62 0 0 1-.198-.008c-.107-.243-.465-.652-.465-1.117 0-.781.51-1.418.51-2.192 0-.48-.234-.778-.324-.902.145-.135.304-.301.342-.415-.085.037-.186.042-.332.042C9.595.148 9.131 0 8.68 0c-.258 0-.327.079-.327.155 0 .028.003.056.011.07a1.524 1.524 0 0 0-.293-.082 2.34 2.34 0 0 0-.43-.038c-.549 0-.744.23-.744.427 0 .167.131.471.28.704.214-.108.471-.181.588-.181.292 0 .551.278.688.606-.196.024-.233.032-.431.032-.535 0-.899-.191-.974-.191-.006 0-.021.004-.021.016 0 .075.152.273.45.382.394.144.984.204 1.082.22 0 .017-.1.203-.212.239a.115.115 0 0 1-.069.003c-.411-.081-.526-.116-1.047-.314-.016-.006-.026.004-.026.02 0 .207.534.662 1.013.837-.4.51-.899 1.032-1.134 1.827a2.642 2.642 0 0 1-.198.008c-1.186 0-2.361-.766-2.361-1.748 0-.524.235-.891.526-1.296.171.028.326.044.449.044.537 0 .828-.287.849-.57 0-.254-.206-.446-.528-.446-.499 0-1.406.465-2.323.465.091.069.241.141.421.209a3.32 3.32 0 0 0-1.032 1.823L1.485 5.465C1.249 5.842.751 6.579 0 7.154c.907 0 1.509.02 2.277-1.194l.719-1.15c.053.149.119.294.196.437l-1.43 2.288c-.238.38-.732 1.11-1.485 1.689.907 0 1.509.021 2.277-1.192l1.23-1.971c.093.098.189.194.291.285L2.338 9.127c-.238.381-.729 1.11-1.484 1.688.908 0 1.509.022 2.276-1.193l1.694-2.711c.112.071.226.139.344.203L3.1 10.423c-.238.38-.729 1.107-1.484 1.687.908 0 1.509.021 2.277-1.192L6.022 7.51c.126.048.253.095.383.136L4 11.496c-.235.375-.737 1.115-1.484 1.687.907 0 1.509.021 2.276-1.192l2.564-4.103.077.014c.07.222.119.429.119.635 0 1.289-.846 2.428-1.862 3.307a.824.824 0 0 0 .283.038c.21 0 .345-.011.44-.028-.235.535-.741 1.226-.996 1.583a7.41 7.41 0 0 0-1.132-.107c-.332 0-.369.194-.369.367 0 .301.141.54.304.674.062-.154.185-.36.797-.36l.062.004c-.179.199-.739.652-.739 1.016 0 .242.265.604.614.604-.021-.078-.018-.149-.018-.203 0-.296.261-.641.483-.883-.007.072-.003.065-.003.149 0 .698.063 1.019.506 1.019.217 0 .367-.119.419-.155-.288-.265-.303-.474-.303-.865l.003-.339a1.899 1.899 0 0 0-.015-.294c.158-.022.223-.022.345-.022 0 0 .629-.05.782.278.171-.157.419-.378.419-.622 0-.161-.077-.344-.401-.344-.123 0-.51.075-.833.075.087-.192.473-.758.809-1.168a.935.935 0 0 0 .305.472c.025-.264.179-1.099.592-1.587.048.33.112.668.112 1.381 0 1.736-.417 3.017-1.303 3.262.116.2.36.381.612.381.324 0 .501-.367.681-.713.093.255.352.881.612.881.259 0 .519-.626.612-.881.18.346.357.713.681.713.252 0 .496-.181.612-.381-.886-.245-1.304-1.526-1.304-3.262 0-.713.065-1.051.113-1.381.413.488.568 1.323.591 1.587a.924.924 0 0 0 .306-.472c.335.41.722.976.809 1.168-.323 0-.71-.075-.833-.075-.324 0-.4.183-.4.344 0 .244.248.465.419.622.151-.328.782-.278.782-.278.121 0 .186 0 .345.022-.015.085-.016.204-.015.294l.002.339c0 .391-.015.6-.303.865.052.036.202.155.419.155.443 0 .507-.321.507-1.019 0-.084.002-.077-.004-.149.222.242.483.587.483.883 0 .054.003.125-.018.203.349 0 .615-.362.615-.604 0-.364-.561-.817-.741-1.016l.062-.004c.613 0 .736.206.798.36a.874.874 0 0 0 .304-.674c0-.173-.037-.367-.369-.367-.316 0-.799.047-1.132.107-.256-.357-.76-1.048-.996-1.583.095.017.231.028.44.028a.82.82 0 0 0 .283-.038c-1.016-.879-1.862-2.018-1.862-3.307 0-.206.049-.413.119-.635l.077-.014 2.564 4.103c.767 1.213 1.369 1.192 2.276 1.192-.747-.572-1.249-1.312-1.484-1.687l-2.406-3.85c.131-.041.259-.088.385-.136l2.128 3.408c.768 1.213 1.369 1.192 2.277 1.192-.755-.58-1.246-1.307-1.484-1.687l-2.067-3.309c.117-.064.231-.132.342-.203l1.695 2.711c.768 1.215 1.368 1.193 2.276 1.193-.755-.578-1.245-1.307-1.484-1.688l-1.737-2.781a4.34 4.34 0 0 0 .29-.285l1.232 1.971c.767 1.213 1.369 1.192 2.276 1.192-.754-.579-1.246-1.309-1.485-1.689l-1.429-2.288c.076-.143.142-.288.196-.437l.718 1.15zM22.07.717h2.625v15H22.07z" fill-rule="nonzero"/><path fill="red" fill-rule="nonzero" d="M22.07 15.717h2.625v15H22.07z"/><path fill="#fc0" fill-rule="nonzero" d="M22.07 30.717h2.625v15H22.07z"/></svg>